<?xml version="1.0" encoding="us-ascii" standalone="no"?><svg xmlns="http://www.w3.org/2000/svg" xmlns:xlink="http://www.w3.org/1999/xlink" contentStyleType="text/css" height="558px" preserveAspectRatio="none" style="width:1419px;height:558px;background:#FFFFFF;" version="1.1" viewBox="0 0 1419 558" width="1419px" zoomAndPan="magnify"><defs/><g><!--class ContenidoAudiovisual--><g id="elem_ContenidoAudiovisual"><rect codeLine="2" fill="#F1F1F1" height="206.4844" id="ContenidoAudiovisual" rx="2.5" ry="2.5" style="stroke:#181818;stroke-width:0.5;" width="202" x="724" y="7"/><ellipse cx="753.85" cy="23" fill="#ADD1B2" rx="11" ry="11" style="stroke:#181818;stroke-width:1.0;"/><path d="M756.6156,18.875 Q756.7719,18.6563 756.9594,18.5469 Q757.1469,18.4375 757.3656,18.4375 Q757.7406,18.4375 757.975,18.7031 Q758.2094,18.9531 758.2094,19.5625 L758.2094,21.0156 Q758.2094,21.625 757.975,21.8906 Q757.7406,22.1563 757.3656,22.1563 Q757.0219,22.1563 756.8188,21.9531 Q756.6156,21.7656 756.5063,21.25 Q756.4594,20.8906 756.2719,20.7031 Q755.9438,20.3281 755.3344,20.1094 Q754.725,19.8906 754.1,19.8906 Q753.3344,19.8906 752.6938,20.2188 Q752.0688,20.5469 751.5688,21.2969 Q751.0844,22.0469 751.0844,23.0781 L751.0844,24.1719 Q751.0844,25.4063 751.975,26.2344 Q752.8656,27.0469 754.4594,27.0469 Q755.3969,27.0469 756.0531,26.7969 Q756.4438,26.6406 756.8656,26.2031 Q757.1313,25.9375 757.2719,25.8594 Q757.4281,25.7813 757.6313,25.7813 Q757.9594,25.7813 758.2094,26.0469 Q758.475,26.2969 758.475,26.6406 Q758.475,26.9844 758.1313,27.3906 Q757.6313,27.9688 756.8344,28.2969 Q755.7563,28.75 754.4594,28.75 Q752.9438,28.75 751.7406,28.125 Q750.7563,27.625 750.0688,26.5625 Q749.3813,25.4844 749.3813,24.2031 L749.3813,23.0469 Q749.3813,21.7188 749.9906,20.5781 Q750.6156,19.4219 751.7094,18.8125 Q752.8031,18.1875 754.0375,18.1875 Q754.7719,18.1875 755.4125,18.3594 Q756.0688,18.5156 756.6156,18.875 Z " fill="#000000"/><text fill="#000000" font-family="sans-serif" font-size="14" lengthAdjust="spacing" textLength="137" x="771.15" y="28.7285">ContenidoAudiovisual</text><line style="stroke:#181818;stroke-width:0.5;" x1="725" x2="925" y1="39" y2="39"/><rect fill="none" height="6" style="stroke:#C82930;stroke-width:1.0;" width="6" x="732" y="50.3047"/><text fill="#000000" font-family="sans-serif" font-size="14" lengthAdjust="spacing" textLength="75" x="744" y="57.5332">titulo: String</text><rect fill="none" height="6" style="stroke:#C82930;stroke-width:1.0;" width="6" x="732" y="67.9141"/><text fill="#000000" font-family="sans-serif" font-size="14" lengthAdjust="spacing" textLength="144" x="744" y="75.1426">duracionEnMinutos: int</text><rect fill="none" height="6" style="stroke:#C82930;stroke-width:1.0;" width="6" x="732" y="85.5234"/><text fill="#000000" font-family="sans-serif" font-size="14" lengthAdjust="spacing" textLength="90" x="744" y="92.752">genero: String</text><rect fill="none" height="6" style="stroke:#C82930;stroke-width:1.0;" width="6" x="732" y="103.1328"/><text fill="#000000" font-family="sans-serif" font-size="14" lengthAdjust="spacing" textLength="34" x="744" y="110.3613">id: int</text><line style="stroke:#181818;stroke-width:0.5;" x1="725" x2="925" y1="117.4375" y2="117.4375"/><ellipse cx="735" cy="131.7422" fill="#84BE84" rx="3" ry="3" style="stroke:#038048;stroke-width:1.0;"/><text fill="#000000" font-family="sans-serif" font-size="14" lengthAdjust="spacing" textLength="110" x="744" y="135.9707">getTitulo(): String</text><ellipse cx="735" cy="149.3516" fill="#84BE84" rx="3" ry="3" style="stroke:#038048;stroke-width:1.0;"/><text fill="#000000" font-family="sans-serif" font-size="14" lengthAdjust="spacing" textLength="176" x="744" y="153.5801">getDuracionEnMinutos(): int</text><ellipse cx="735" cy="166.9609" fill="#84BE84" rx="3" ry="3" style="stroke:#038048;stroke-width:1.0;"/><text fill="#000000" font-family="sans-serif" font-size="14" lengthAdjust="spacing" textLength="123" x="744" y="171.1895">getGenero(): String</text><ellipse cx="735" cy="184.5703" fill="#84BE84" rx="3" ry="3" style="stroke:#038048;stroke-width:1.0;"/><text fill="#000000" font-family="sans-serif" font-size="14" lengthAdjust="spacing" textLength="64" x="744" y="188.7988">getId(): int</text><ellipse cx="735" cy="202.1797" fill="#84BE84" rx="3" ry="3" style="stroke:#038048;stroke-width:1.0;"/><text fill="#000000" font-family="sans-serif" font-size="14" lengthAdjust="spacing" textLength="143" x="744" y="206.4082">mostrarDetalles(): void</text></g><!--class Pelicula--><g id="elem_Pelicula"><rect codeLine="14" fill="#F1F1F1" height="118.4375" id="Pelicula" rx="2.5" ry="2.5" style="stroke:#181818;stroke-width:0.5;" width="226" x="7" y="273"/><ellipse cx="91.25" cy="289" fill="#ADD1B2" rx="11" ry="11" style="stroke:#181818;stroke-width:1.0;"/><path d="M94.0156,284.875 Q94.1719,284.6563 94.3594,284.5469 Q94.5469,284.4375 94.7656,284.4375 Q95.1406,284.4375 95.375,284.7031 Q95.6094,284.9531 95.6094,285.5625 L95.6094,287.0156 Q95.6094,287.625 95.375,287.8906 Q95.1406,288.1563 94.7656,288.1563 Q94.4219,288.1563 94.2188,287.9531 Q94.0156,287.7656 93.9063,287.25 Q93.8594,286.8906 93.6719,286.7031 Q93.3438,286.3281 92.7344,286.1094 Q92.125,285.8906 91.5,285.8906 Q90.7344,285.8906 90.0938,286.2188 Q89.4688,286.5469 88.9688,287.2969 Q88.4844,288.0469 88.4844,289.0781 L88.4844,290.1719 Q88.4844,291.4063 89.375,292.2344 Q90.2656,293.0469 91.8594,293.0469 Q92.7969,293.0469 93.4531,292.7969 Q93.8438,292.6406 94.2656,292.2031 Q94.5313,291.9375 94.6719,291.8594 Q94.8281,291.7813 95.0313,291.7813 Q95.3594,291.7813 95.6094,292.0469 Q95.875,292.2969 95.875,292.6406 Q95.875,292.9844 95.5313,293.3906 Q95.0313,293.9688 94.2344,294.2969 Q93.1563,294.75 91.8594,294.75 Q90.3438,294.75 89.1406,294.125 Q88.1563,293.625 87.4688,292.5625 Q86.7813,291.4844 86.7813,290.2031 L86.7813,289.0469 Q86.7813,287.7188 87.3906,286.5781 Q88.0156,285.4219 89.1094,284.8125 Q90.2031,284.1875 91.4375,284.1875 Q92.1719,284.1875 92.8125,284.3594 Q93.4688,284.5156 94.0156,284.875 Z " fill="#000000"/><text fill="#000000" font-family="sans-serif" font-size="14" lengthAdjust="spacing" textLength="49" x="111.75" y="294.7285">Pelicula</text><line style="stroke:#181818;stroke-width:0.5;" x1="8" x2="232" y1="305" y2="305"/><rect fill="none" height="6" style="stroke:#C82930;stroke-width:1.0;" width="6" x="15" y="316.3047"/><text fill="#000000" font-family="sans-serif" font-size="14" lengthAdjust="spacing" textLength="91" x="27" y="323.5332">estudio: String</text><rect fill="none" height="6" style="stroke:#C82930;stroke-width:1.0;" width="6" x="15" y="333.9141"/><text fill="#000000" font-family="sans-serif" font-size="14" lengthAdjust="spacing" textLength="126" x="27" y="341.1426">actores: List&lt;Actor&gt;</text><line style="stroke:#181818;stroke-width:0.5;" x1="8" x2="232" y1="348.2188" y2="348.2188"/><ellipse cx="18" cy="362.5234" fill="#84BE84" rx="3" ry="3" style="stroke:#038048;stroke-width:1.0;"/><text fill="#000000" font-family="sans-serif" font-size="14" lengthAdjust="spacing" textLength="200" x="27" y="366.752">agregarActor(actor: Actor): void</text><ellipse cx="18" cy="380.1328" fill="#84BE84" rx="3" ry="3" style="stroke:#038048;stroke-width:1.0;"/><text fill="#000000" font-family="sans-serif" font-size="14" lengthAdjust="spacing" textLength="143" x="27" y="384.3613">mostrarDetalles(): void</text></g><!--class SerieDeTV--><g id="elem_SerieDeTV"><rect codeLine="21" fill="#F1F1F1" height="100.8281" id="SerieDeTV" rx="2.5" ry="2.5" style="stroke:#181818;stroke-width:0.5;" width="342" x="268" y="281.5"/><ellipse cx="400.25" cy="297.5" fill="#ADD1B2" rx="11" ry="11" style="stroke:#181818;stroke-width:1.0;"/><path d="M403.0156,293.375 Q403.1719,293.1563 403.3594,293.0469 Q403.5469,292.9375 403.7656,292.9375 Q404.1406,292.9375 404.375,293.2031 Q404.6094,293.4531 404.6094,294.0625 L404.6094,295.5156 Q404.6094,296.125 404.375,296.3906 Q404.1406,296.6563 403.7656,296.6563 Q403.4219,296.6563 403.2188,296.4531 Q403.0156,296.2656 402.9063,295.75 Q402.8594,295.3906 402.6719,295.2031 Q402.3438,294.8281 401.7344,294.6094 Q401.125,294.3906 400.5,294.3906 Q399.7344,294.3906 399.0938,294.7188 Q398.4688,295.0469 397.9688,295.7969 Q397.4844,296.5469 397.4844,297.5781 L397.4844,298.6719 Q397.4844,299.9063 398.375,300.7344 Q399.2656,301.5469 400.8594,301.5469 Q401.7969,301.5469 402.4531,301.2969 Q402.8438,301.1406 403.2656,300.7031 Q403.5313,300.4375 403.6719,300.3594 Q403.8281,300.2813 404.0313,300.2813 Q404.3594,300.2813 404.6094,300.5469 Q404.875,300.7969 404.875,301.1406 Q404.875,301.4844 404.5313,301.8906 Q404.0313,302.4688 403.2344,302.7969 Q402.1563,303.25 400.8594,303.25 Q399.3438,303.25 398.1406,302.625 Q397.1563,302.125 396.4688,301.0625 Q395.7813,299.9844 395.7813,298.7031 L395.7813,297.5469 Q395.7813,296.2188 396.3906,295.0781 Q397.0156,293.9219 398.1094,293.3125 Q399.2031,292.6875 400.4375,292.6875 Q401.1719,292.6875 401.8125,292.8594 Q402.4688,293.0156 403.0156,293.375 Z " fill="#000000"/><text fill="#000000" font-family="sans-serif" font-size="14" lengthAdjust="spacing" textLength="69" x="420.75" y="303.2285">SerieDeTV</text><line style="stroke:#181818;stroke-width:0.5;" x1="269" x2="609" y1="313.5" y2="313.5"/><rect fill="none" height="6" style="stroke:#C82930;stroke-width:1.0;" width="6" x="276" y="324.8047"/><text fill="#000000" font-family="sans-serif" font-size="14" lengthAdjust="spacing" textLength="194" x="288" y="332.0332">temporadas: List&lt;Temporada&gt;</text><line style="stroke:#181818;stroke-width:0.5;" x1="269" x2="609" y1="339.1094" y2="339.1094"/><ellipse cx="279" cy="353.4141" fill="#84BE84" rx="3" ry="3" style="stroke:#038048;stroke-width:1.0;"/><text fill="#000000" font-family="sans-serif" font-size="14" lengthAdjust="spacing" textLength="316" x="288" y="357.6426">agregarTemporada(temporada: Temporada): void</text><ellipse cx="279" cy="371.0234" fill="#84BE84" rx="3" ry="3" style="stroke:#038048;stroke-width:1.0;"/><text fill="#000000" font-family="sans-serif" font-size="14" lengthAdjust="spacing" textLength="143" x="288" y="375.252">mostrarDetalles(): void</text></g><!--class Documental--><g id="elem_Documental"><rect codeLine="27" fill="#F1F1F1" height="118.4375" id="Documental" rx="2.5" ry="2.5" style="stroke:#181818;stroke-width:0.5;" width="359" x="645.5" y="273"/><ellipse cx="783.25" cy="289" fill="#ADD1B2" rx="11" ry="11" style="stroke:#181818;stroke-width:1.0;"/><path d="M786.0156,284.875 Q786.1719,284.6563 786.3594,284.5469 Q786.5469,284.4375 786.7656,284.4375 Q787.1406,284.4375 787.375,284.7031 Q787.6094,284.9531 787.6094,285.5625 L787.6094,287.0156 Q787.6094,287.625 787.375,287.8906 Q787.1406,288.1563 786.7656,288.1563 Q786.4219,288.1563 786.2188,287.9531 Q786.0156,287.7656 785.9063,287.25 Q785.8594,286.8906 785.6719,286.7031 Q785.3438,286.3281 784.7344,286.1094 Q784.125,285.8906 783.5,285.8906 Q782.7344,285.8906 782.0938,286.2188 Q781.4688,286.5469 780.9688,287.2969 Q780.4844,288.0469 780.4844,289.0781 L780.4844,290.1719 Q780.4844,291.4063 781.375,292.2344 Q782.2656,293.0469 783.8594,293.0469 Q784.7969,293.0469 785.4531,292.7969 Q785.8438,292.6406 786.2656,292.2031 Q786.5313,291.9375 786.6719,291.8594 Q786.8281,291.7813 787.0313,291.7813 Q787.3594,291.7813 787.6094,292.0469 Q787.875,292.2969 787.875,292.6406 Q787.875,292.9844 787.5313,293.3906 Q787.0313,293.9688 786.2344,294.2969 Q785.1563,294.75 783.8594,294.75 Q782.3438,294.75 781.1406,294.125 Q780.1563,293.625 779.4688,292.5625 Q778.7813,291.4844 778.7813,290.2031 L778.7813,289.0469 Q778.7813,287.7188 779.3906,286.5781 Q780.0156,285.4219 781.1094,284.8125 Q782.2031,284.1875 783.4375,284.1875 Q784.1719,284.1875 784.8125,284.3594 Q785.4688,284.5156 786.0156,284.875 Z " fill="#000000"/><text fill="#000000" font-family="sans-serif" font-size="14" lengthAdjust="spacing" textLength="75" x="803.75" y="294.7285">Documental</text><line style="stroke:#181818;stroke-width:0.5;" x1="646.5" x2="1003.5" y1="305" y2="305"/><rect fill="none" height="6" style="stroke:#C82930;stroke-width:1.0;" width="6" x="653.5" y="316.3047"/><text fill="#000000" font-family="sans-serif" font-size="14" lengthAdjust="spacing" textLength="76" x="665.5" y="323.5332">tema: String</text><rect fill="none" height="6" style="stroke:#C82930;stroke-width:1.0;" width="6" x="653.5" y="333.9141"/><text fill="#000000" font-family="sans-serif" font-size="14" lengthAdjust="spacing" textLength="215" x="665.5" y="341.1426">investigadores: List&lt;Investigador&gt;</text><line style="stroke:#181818;stroke-width:0.5;" x1="646.5" x2="1003.5" y1="348.2188" y2="348.2188"/><ellipse cx="656.5" cy="362.5234" fill="#84BE84" rx="3" ry="3" style="stroke:#038048;stroke-width:1.0;"/><text fill="#000000" font-family="sans-serif" font-size="14" lengthAdjust="spacing" textLength="333" x="665.5" y="366.752">agregarInvestigador(investigador: Investigador): void</text><ellipse cx="656.5" cy="380.1328" fill="#84BE84" rx="3" ry="3" style="stroke:#038048;stroke-width:1.0;"/><text fill="#000000" font-family="sans-serif" font-size="14" lengthAdjust="spacing" textLength="143" x="665.5" y="384.3613">mostrarDetalles(): void</text></g><!--class VideoYouTube--><g id="elem_VideoYouTube"><rect codeLine="34" fill="#F1F1F1" height="100.8281" id="VideoYouTube" rx="2.5" ry="2.5" style="stroke:#181818;stroke-width:0.5;" width="169" x="1039.5" y="281.5"/><ellipse cx="1073.85" cy="297.5" fill="#ADD1B2" rx="11" ry="11" style="stroke:#181818;stroke-width:1.0;"/><path d="M1076.6156,293.375 Q1076.7719,293.1563 1076.9594,293.0469 Q1077.1469,292.9375 1077.3656,292.9375 Q1077.7406,292.9375 1077.975,293.2031 Q1078.2094,293.4531 1078.2094,294.0625 L1078.2094,295.5156 Q1078.2094,296.125 1077.975,296.3906 Q1077.7406,296.6563 1077.3656,296.6563 Q1077.0219,296.6563 1076.8188,296.4531 Q1076.6156,296.2656 1076.5063,295.75 Q1076.4594,295.3906 1076.2719,295.2031 Q1075.9438,294.8281 1075.3344,294.6094 Q1074.725,294.3906 1074.1,294.3906 Q1073.3344,294.3906 1072.6938,294.7188 Q1072.0688,295.0469 1071.5688,295.7969 Q1071.0844,296.5469 1071.0844,297.5781 L1071.0844,298.6719 Q1071.0844,299.9063 1071.975,300.7344 Q1072.8656,301.5469 1074.4594,301.5469 Q1075.3969,301.5469 1076.0531,301.2969 Q1076.4438,301.1406 1076.8656,300.7031 Q1077.1313,300.4375 1077.2719,300.3594 Q1077.4281,300.2813 1077.6313,300.2813 Q1077.9594,300.2813 1078.2094,300.5469 Q1078.475,300.7969 1078.475,301.1406 Q1078.475,301.4844 1078.1313,301.8906 Q1077.6313,302.4688 1076.8344,302.7969 Q1075.7563,303.25 1074.4594,303.25 Q1072.9438,303.25 1071.7406,302.625 Q1070.7563,302.125 1070.0688,301.0625 Q1069.3813,299.9844 1069.3813,298.7031 L1069.3813,297.5469 Q1069.3813,296.2188 1069.9906,295.0781 Q1070.6156,293.9219 1071.7094,293.3125 Q1072.8031,292.6875 1074.0375,292.6875 Q1074.7719,292.6875 1075.4125,292.8594 Q1076.0688,293.0156 1076.6156,293.375 Z " fill="#000000"/><text fill="#000000" font-family="sans-serif" font-size="14" lengthAdjust="spacing" textLength="94" x="1092.15" y="303.2285">VideoYouTube</text><line style="stroke:#181818;stroke-width:0.5;" x1="1040.5" x2="1207.5" y1="313.5" y2="313.5"/><rect fill="none" height="6" style="stroke:#C82930;stroke-width:1.0;" width="6" x="1047.5" y="324.8047"/><text fill="#000000" font-family="sans-serif" font-size="14" lengthAdjust="spacing" textLength="79" x="1059.5" y="332.0332">canal: String</text><rect fill="none" height="6" style="stroke:#C82930;stroke-width:1.0;" width="6" x="1047.5" y="342.4141"/><text fill="#000000" font-family="sans-serif" font-size="14" lengthAdjust="spacing" textLength="59" x="1059.5" y="349.6426">vistas: int</text><line style="stroke:#181818;stroke-width:0.5;" x1="1040.5" x2="1207.5" y1="356.7188" y2="356.7188"/><ellipse cx="1050.5" cy="371.0234" fill="#84BE84" rx="3" ry="3" style="stroke:#038048;stroke-width:1.0;"/><text fill="#000000" font-family="sans-serif" font-size="14" lengthAdjust="spacing" textLength="143" x="1059.5" y="375.252">mostrarDetalles(): void</text></g><!--class Cortometraje--><g id="elem_Cortometraje"><rect codeLine="40" fill="#F1F1F1" height="100.8281" id="Cortometraje" rx="2.5" ry="2.5" style="stroke:#181818;stroke-width:0.5;" width="169" x="1243.5" y="281.5"/><ellipse cx="1283.25" cy="297.5" fill="#ADD1B2" rx="11" ry="11" style="stroke:#181818;stroke-width:1.0;"/><path d="M1286.0156,293.375 Q1286.1719,293.1563 1286.3594,293.0469 Q1286.5469,292.9375 1286.7656,292.9375 Q1287.1406,292.9375 1287.375,293.2031 Q1287.6094,293.4531 1287.6094,294.0625 L1287.6094,295.5156 Q1287.6094,296.125 1287.375,296.3906 Q1287.1406,296.6563 1286.7656,296.6563 Q1286.4219,296.6563 1286.2188,296.4531 Q1286.0156,296.2656 1285.9063,295.75 Q1285.8594,295.3906 1285.6719,295.2031 Q1285.3438,294.8281 1284.7344,294.6094 Q1284.125,294.3906 1283.5,294.3906 Q1282.7344,294.3906 1282.0938,294.7188 Q1281.4688,295.0469 1280.9688,295.7969 Q1280.4844,296.5469 1280.4844,297.5781 L1280.4844,298.6719 Q1280.4844,299.9063 1281.375,300.7344 Q1282.2656,301.5469 1283.8594,301.5469 Q1284.7969,301.5469 1285.4531,301.2969 Q1285.8438,301.1406 1286.2656,300.7031 Q1286.5313,300.4375 1286.6719,300.3594 Q1286.8281,300.2813 1287.0313,300.2813 Q1287.3594,300.2813 1287.6094,300.5469 Q1287.875,300.7969 1287.875,301.1406 Q1287.875,301.4844 1287.5313,301.8906 Q1287.0313,302.4688 1286.2344,302.7969 Q1285.1563,303.25 1283.8594,303.25 Q1282.3438,303.25 1281.1406,302.625 Q1280.1563,302.125 1279.4688,301.0625 Q1278.7813,299.9844 1278.7813,298.7031 L1278.7813,297.5469 Q1278.7813,296.2188 1279.3906,295.0781 Q1280.0156,293.9219 1281.1094,293.3125 Q1282.2031,292.6875 1283.4375,292.6875 Q1284.1719,292.6875 1284.8125,292.8594 Q1285.4688,293.0156 1286.0156,293.375 Z " fill="#000000"/><text fill="#000000" font-family="sans-serif" font-size="14" lengthAdjust="spacing" textLength="82" x="1302.75" y="303.2285">Cortometraje</text><line style="stroke:#181818;stroke-width:0.5;" x1="1244.5" x2="1411.5" y1="313.5" y2="313.5"/><rect fill="none" height="6" style="stroke:#C82930;stroke-width:1.0;" width="6" x="1251.5" y="324.8047"/><text fill="#000000" font-family="sans-serif" font-size="14" lengthAdjust="spacing" textLength="93" x="1263.5" y="332.0332">director: String</text><rect fill="none" height="6" style="stroke:#C82930;stroke-width:1.0;" width="6" x="1251.5" y="342.4141"/><text fill="#000000" font-family="sans-serif" font-size="14" lengthAdjust="spacing" textLength="78" x="1263.5" y="349.6426">duracion: int</text><line style="stroke:#181818;stroke-width:0.5;" x1="1244.5" x2="1411.5" y1="356.7188" y2="356.7188"/><ellipse cx="1254.5" cy="371.0234" fill="#84BE84" rx="3" ry="3" style="stroke:#038048;stroke-width:1.0;"/><text fill="#000000" font-family="sans-serif" font-size="14" lengthAdjust="spacing" textLength="143" x="1263.5" y="375.252">mostrarDetalles(): void</text></g><!--class Actor--><g id="elem_Actor"><rect codeLine="46" fill="#F1F1F1" height="100.8281" id="Actor" rx="2.5" ry="2.5" style="stroke:#181818;stroke-width:0.5;" width="119" x="60.5" y="451"/><ellipse cx="99.8" cy="467" fill="#ADD1B2" rx="11" ry="11" style="stroke:#181818;stroke-width:1.0;"/><path d="M102.5656,462.875 Q102.7219,462.6563 102.9094,462.5469 Q103.0969,462.4375 103.3156,462.4375 Q103.6906,462.4375 103.925,462.7031 Q104.1594,462.9531 104.1594,463.5625 L104.1594,465.0156 Q104.1594,465.625 103.925,465.8906 Q103.6906,466.1563 103.3156,466.1563 Q102.9719,466.1563 102.7688,465.9531 Q102.5656,465.7656 102.4563,465.25 Q102.4094,464.8906 102.2219,464.7031 Q101.8938,464.3281 101.2844,464.1094 Q100.675,463.8906 100.05,463.8906 Q99.2844,463.8906 98.6438,464.2188 Q98.0188,464.5469 97.5188,465.2969 Q97.0344,466.0469 97.0344,467.0781 L97.0344,468.1719 Q97.0344,469.4063 97.925,470.2344 Q98.8156,471.0469 100.4094,471.0469 Q101.3469,471.0469 102.0031,470.7969 Q102.3938,470.6406 102.8156,470.2031 Q103.0813,469.9375 103.2219,469.8594 Q103.3781,469.7813 103.5813,469.7813 Q103.9094,469.7813 104.1594,470.0469 Q104.425,470.2969 104.425,470.6406 Q104.425,470.9844 104.0813,471.3906 Q103.5813,471.9688 102.7844,472.2969 Q101.7063,472.75 100.4094,472.75 Q98.8938,472.75 97.6906,472.125 Q96.7063,471.625 96.0188,470.5625 Q95.3313,469.4844 95.3313,468.2031 L95.3313,467.0469 Q95.3313,465.7188 95.9406,464.5781 Q96.5656,463.4219 97.6594,462.8125 Q98.7531,462.1875 99.9875,462.1875 Q100.7219,462.1875 101.3625,462.3594 Q102.0188,462.5156 102.5656,462.875 Z " fill="#000000"/><text fill="#000000" font-family="sans-serif" font-size="14" lengthAdjust="spacing" textLength="33" x="119.2" y="472.7285">Actor</text><line style="stroke:#181818;stroke-width:0.5;" x1="61.5" x2="178.5" y1="483" y2="483"/><rect fill="none" height="6" style="stroke:#C82930;stroke-width:1.0;" width="6" x="68.5" y="494.3047"/><text fill="#000000" font-family="sans-serif" font-size="14" lengthAdjust="spacing" textLength="93" x="80.5" y="501.5332">nombre: String</text><rect fill="none" height="6" style="stroke:#C82930;stroke-width:1.0;" width="6" x="68.5" y="511.9141"/><text fill="#000000" font-family="sans-serif" font-size="14" lengthAdjust="spacing" textLength="55" x="80.5" y="519.1426">edad: int</text><rect fill="none" height="6" style="stroke:#C82930;stroke-width:1.0;" width="6" x="68.5" y="529.5234"/><text fill="#000000" font-family="sans-serif" font-size="14" lengthAdjust="spacing" textLength="61" x="80.5" y="536.752">rol: String</text><line style="stroke:#181818;stroke-width:0.5;" x1="61.5" x2="178.5" y1="543.8281" y2="543.8281"/></g><!--class Temporada--><g id="elem_Temporada"><rect codeLine="52" fill="#F1F1F1" height="83.2188" id="Temporada" rx="2.5" ry="2.5" style="stroke:#181818;stroke-width:0.5;" width="170" x="354" y="460"/><ellipse cx="398.25" cy="476" fill="#ADD1B2" rx="11" ry="11" style="stroke:#181818;stroke-width:1.0;"/><path d="M401.0156,471.875 Q401.1719,471.6563 401.3594,471.5469 Q401.5469,471.4375 401.7656,471.4375 Q402.1406,471.4375 402.375,471.7031 Q402.6094,471.9531 402.6094,472.5625 L402.6094,474.0156 Q402.6094,474.625 402.375,474.8906 Q402.1406,475.1563 401.7656,475.1563 Q401.4219,475.1563 401.2188,474.9531 Q401.0156,474.7656 400.9063,474.25 Q400.8594,473.8906 400.6719,473.7031 Q400.3438,473.3281 399.7344,473.1094 Q399.125,472.8906 398.5,472.8906 Q397.7344,472.8906 397.0938,473.2188 Q396.4688,473.5469 395.9688,474.2969 Q395.4844,475.0469 395.4844,476.0781 L395.4844,477.1719 Q395.4844,478.4063 396.375,479.2344 Q397.2656,480.0469 398.8594,480.0469 Q399.7969,480.0469 400.4531,479.7969 Q400.8438,479.6406 401.2656,479.2031 Q401.5313,478.9375 401.6719,478.8594 Q401.8281,478.7813 402.0313,478.7813 Q402.3594,478.7813 402.6094,479.0469 Q402.875,479.2969 402.875,479.6406 Q402.875,479.9844 402.5313,480.3906 Q402.0313,480.9688 401.2344,481.2969 Q400.1563,481.75 398.8594,481.75 Q397.3438,481.75 396.1406,481.125 Q395.1563,480.625 394.4688,479.5625 Q393.7813,478.4844 393.7813,477.2031 L393.7813,476.0469 Q393.7813,474.7188 394.3906,473.5781 Q395.0156,472.4219 396.1094,471.8125 Q397.2031,471.1875 398.4375,471.1875 Q399.1719,471.1875 399.8125,471.3594 Q400.4688,471.5156 401.0156,471.875 Z " fill="#000000"/><text fill="#000000" font-family="sans-serif" font-size="14" lengthAdjust="spacing" textLength="73" x="418.75" y="481.7285">Temporada</text><line style="stroke:#181818;stroke-width:0.5;" x1="355" x2="523" y1="492" y2="492"/><rect fill="none" height="6" style="stroke:#C82930;stroke-width:1.0;" width="6" x="362" y="503.3047"/><text fill="#000000" font-family="sans-serif" font-size="14" lengthAdjust="spacing" textLength="144" x="374" y="510.5332">numeroTemporada: int</text><rect fill="none" height="6" style="stroke:#C82930;stroke-width:1.0;" width="6" x="362" y="520.9141"/><text fill="#000000" font-family="sans-serif" font-size="14" lengthAdjust="spacing" textLength="143" x="374" y="528.1426">episodios: List&lt;String&gt;</text><line style="stroke:#181818;stroke-width:0.5;" x1="355" x2="523" y1="535.2188" y2="535.2188"/></g><!--class Investigador--><g id="elem_Investigador"><rect codeLine="57" fill="#F1F1F1" height="100.8281" id="Investigador" rx="2.5" ry="2.5" style="stroke:#181818;stroke-width:0.5;" width="166" x="742" y="451"/><ellipse cx="782.65" cy="467" fill="#ADD1B2" rx="11" ry="11" style="stroke:#181818;stroke-width:1.0;"/><path d="M785.4156,462.875 Q785.5719,462.6563 785.7594,462.5469 Q785.9469,462.4375 786.1656,462.4375 Q786.5406,462.4375 786.775,462.7031 Q787.0094,462.9531 787.0094,463.5625 L787.0094,465.0156 Q787.0094,465.625 786.775,465.8906 Q786.5406,466.1563 786.1656,466.1563 Q785.8219,466.1563 785.6188,465.9531 Q785.4156,465.7656 785.3063,465.25 Q785.2594,464.8906 785.0719,464.7031 Q784.7438,464.3281 784.1344,464.1094 Q783.525,463.8906 782.9,463.8906 Q782.1344,463.8906 781.4938,464.2188 Q780.8688,464.5469 780.3688,465.2969 Q779.8844,466.0469 779.8844,467.0781 L779.8844,468.1719 Q779.8844,469.4063 780.775,470.2344 Q781.6656,471.0469 783.2594,471.0469 Q784.1969,471.0469 784.8531,470.7969 Q785.2438,470.6406 785.6656,470.2031 Q785.9313,469.9375 786.0719,469.8594 Q786.2281,469.7813 786.4313,469.7813 Q786.7594,469.7813 787.0094,470.0469 Q787.275,470.2969 787.275,470.6406 Q787.275,470.9844 786.9313,471.3906 Q786.4313,471.9688 785.6344,472.2969 Q784.5563,472.75 783.2594,472.75 Q781.7438,472.75 780.5406,472.125 Q779.5563,471.625 778.8688,470.5625 Q778.1813,469.4844 778.1813,468.2031 L778.1813,467.0469 Q778.1813,465.7188 778.7906,464.5781 Q779.4156,463.4219 780.5094,462.8125 Q781.6031,462.1875 782.8375,462.1875 Q783.5719,462.1875 784.2125,462.3594 Q784.8688,462.5156 785.4156,462.875 Z " fill="#000000"/><text fill="#000000" font-family="sans-serif" font-size="14" lengthAdjust="spacing" textLength="77" x="802.35" y="472.7285">Investigador</text><line style="stroke:#181818;stroke-width:0.5;" x1="743" x2="907" y1="483" y2="483"/><rect fill="none" height="6" style="stroke:#C82930;stroke-width:1.0;" width="6" x="750" y="494.3047"/><text fill="#000000" font-family="sans-serif" font-size="14" lengthAdjust="spacing" textLength="93" x="762" y="501.5332">nombre: String</text><rect fill="none" height="6" style="stroke:#C82930;stroke-width:1.0;" width="6" x="750" y="511.9141"/><text fill="#000000" font-family="sans-serif" font-size="14" lengthAdjust="spacing" textLength="140" x="762" y="519.1426">especializacion: String</text><rect fill="none" height="6" style="stroke:#C82930;stroke-width:1.0;" width="6" x="750" y="529.5234"/><text fill="#000000" font-family="sans-serif" font-size="14" lengthAdjust="spacing" textLength="100" x="762" y="536.752">afiliacion: String</text><line style="stroke:#181818;stroke-width:0.5;" x1="743" x2="907" y1="543.8281" y2="543.8281"/></g><!--reverse link ContenidoAudiovisual to Pelicula--><g id="link_ContenidoAudiovisual_Pelicula"><path codeLine="63" d="M706.4044,139.0323 C590.4544,167.3623 412.87,214.08 250,273 C244.42,275.02 238.75,277.17 233.04,279.41 " fill="none" id="ContenidoAudiovisual-backto-Pelicula" style="stroke:#181818;stroke-width:1.0;"/><polygon fill="none" points="723.89,134.76,704.9803,133.2037,707.8284,144.8608,723.89,134.76" style="stroke:#181818;stroke-width:1.0;"/></g><!--reverse link ContenidoAudiovisual to SerieDeTV--><g id="link_ContenidoAudiovisual_SerieDeTV"><path codeLine="64" d="M708.2015,177.5727 C646.7715,212.5827 584.8,247.9 526.11,281.35 " fill="none" id="ContenidoAudiovisual-backto-SerieDeTV" style="stroke:#181818;stroke-width:1.0;"/><polygon fill="none" points="723.84,168.66,705.2306,172.3598,711.1723,182.7855,723.84,168.66" style="stroke:#181818;stroke-width:1.0;"/></g><!--reverse link ContenidoAudiovisual to Documental--><g id="link_ContenidoAudiovisual_Documental"><path codeLine="65" d="M825,231.27 C825,251.69 825,254.47 825,272.77 " fill="none" id="ContenidoAudiovisual-backto-Documental" style="stroke:#181818;stroke-width:1.0;"/><polygon fill="none" points="825,213.27,819,231.27,831,231.27,825,213.27" style="stroke:#181818;stroke-width:1.0;"/></g><!--reverse link ContenidoAudiovisual to VideoYouTube--><g id="link_ContenidoAudiovisual_VideoYouTube"><path codeLine="66" d="M940.7276,196.1486 C983.5876,227.6886 1017.88,252.92 1056.28,281.17 " fill="none" id="ContenidoAudiovisual-backto-VideoYouTube" style="stroke:#181818;stroke-width:1.0;"/><polygon fill="none" points="926.23,185.48,937.1714,200.9811,944.2838,191.316,926.23,185.48" style="stroke:#181818;stroke-width:1.0;"/></g><!--reverse link ContenidoAudiovisual to Cortometraje--><g id="link_ContenidoAudiovisual_Cortometraje"><path codeLine="67" d="M943.1688,153.9572 C1025.2288,184.6572 1126.3,224.78 1226,273 C1231.69,275.75 1237.49,278.68 1243.3,281.72 " fill="none" id="ContenidoAudiovisual-backto-Cortometraje" style="stroke:#181818;stroke-width:1.0;"/><polygon fill="none" points="926.31,147.65,941.0664,159.5768,945.2712,148.3376,926.31,147.65" style="stroke:#181818;stroke-width:1.0;"/></g><!--reverse link SerieDeTV to Temporada--><g id="link_SerieDeTV_Temporada"><path codeLine="68" d="M439,394.8 C439,419.39 439,436.68 439,459.89 " fill="none" id="SerieDeTV-backto-Temporada" style="stroke:#181818;stroke-width:1.0;"/><polygon fill="#181818" points="439,382.8,435,388.8,439,394.8,443,388.8,439,382.8" style="stroke:#181818;stroke-width:1.0;"/></g><!--reverse link Documental to Investigador--><g id="link_Documental_Investigador"><path codeLine="69" d="M825,403.11 C825,422.58 825,432.09 825,450.84 " fill="none" id="Documental-backto-Investigador" style="stroke:#181818;stroke-width:1.0;"/><polygon fill="none" points="825,391.11,821,397.11,825,403.11,829,397.11,825,391.11" style="stroke:#181818;stroke-width:1.0;"/></g><!--reverse link Pelicula to Actor--><g id="link_Pelicula_Actor"><path codeLine="70" d="M120,403.11 C120,422.58 120,432.09 120,450.84 " fill="none" id="Pelicula-backto-Actor" style="stroke:#181818;stroke-width:1.0;"/><polygon fill="none" points="120,391.11,116,397.11,120,403.11,124,397.11,120,391.11" style="stroke:#181818;stroke-width:1.0;"/></g><!--SRC=[bLJRQiCm37tFL_Yns-WFX54OxHY53GOBXJsgiHOq7AluqeTT_dskrzfEADcQDqj7HxUZj0gi5KlM3ZL9llEIU4_MWnAVbGZVN3XoNd4jNfmXtHsDqXjeYVMzVYBj7TjQa7P7PuSQpJY2P8RS18Xh8k_iQe2BdjMO_00Qn3x43ETYrt88xjaw0sQ53fJ2oBHdajLtLRMnzsTKr7e5gL-qxZ25KVdGEZOOsdmawsxl3g_5CGLq1ZimqJQBk5h4nodNFojvGKEumcQJHu_zZWr8EELjJePHxcIVfP1Q9EE5TQouzJrgLse0UnZlK-_3fAW3MSnbNHX79PQkMHbSYz9rOQqRaiYlx1k_nLHj2nhKgDmWQWVs8cKisJZkCO3UCxSaWxyhFdiF5oM88adCclkjmH4lIf3bQHdEZIMUjEZC5HPekCbQo0ou8yj1twUL_P8jCbkvZJ-Aipji2HHz77iVNimRAHewGewplvhRh_ay7U8495t812QhTm9KocO2LYgWokTv7LnfjbLnBXmSvVYgz7CvUEAwgny0]--></g></svg>